# xmcd
#
# Track frame offsets:
#	150
#	18591
#	33618
#	51326
#	79115
#	95631
#	113370
#	128479
#	143965
#	160389
#	176343
#	191826
#	207037
#	222937
#	240038
#	257750
#	274071
#	291042
#	308568
#	324822
#
# Disc length: 4601
#
# Revision: 1
# Processed by: cddbd v1.5.1PL0 Copyright (c) Steve Scherf et al.
# Submitted via: FreeRIP 2.12 
# Normalized: r0:DSETVAR1,TDELIM( - )
#
DISCID=1011f714
DTITLE=Various Artist - Eighties Soul Weekender III
DYEAR=1900
DGENRE=Soul
TTITLE0=Marvin Gaye - Sexual Healing
TTITLE1=Ashford and Simpson - Solid
TTITLE2=Central Line - Walking Into Sunshine
TTITLE3=Change - The Glow Of Love
TTITLE4=Donald Byrd - Love Has Come Around
TTITLE5=Narada Michael Warden - I Shoulda Loved Ya
TTITLE6=Kleeer - Get Trough
TTITLE7=Stacy Lattisaw - Jump To The Beat
TTITLE8=Shalamar - Right In The Socket
TTITLE9=Beggar and Co. - (Somebody) Help Me Out
TTITLE10=Leon Hagwood - Don't Push It Don't Force It
TTITLE11=Dynasty - I Don't Wanna Be A Freak (But I Can't Help Myself)
TTITLE12=Jermaine Jackson - Let's Get Serious
TTITLE13=Total Contrast - Take's A Little Time
TTITLE14=Brass Construction - Movin'
TTITLE15=Loose Ends - Hangin' On A String
TTITLE16=Joyce Sims - Come Into My Life
TTITLE17=The Blackbyrds - Rock Creek Park
TTITLE18=Atlantic Starr - Secret Lovers
TTITLE19=Champaign - How 'Bout Us
EXTD=
EXTT0=
EXTT1=
EXTT2=
EXTT3=
EXTT4=
EXTT5=
EXTT6=
EXTT7=
EXTT8=
EXTT9=
EXTT10=
EXTT11=
EXTT12=
EXTT13=
EXTT14=
EXTT15=
EXTT16=
EXTT17=
EXTT18=
EXTT19=
PLAYORDER=
